<svg id="圖層_1" data-name="圖層 1" xmlns="http://www.w3.org/2000/svg" xmlns:xlink="http://www.w3.org/1999/xlink" viewBox="0 0 26.35 15.05"><defs><style>.cls-1,.cls-4{fill:none;}.cls-2{clip-path:url(#clip-path);}.cls-3{fill:#fff;}.cls-4{stroke:#fff;stroke-miterlimit:10;}</style><clipPath id="clip-path"><rect class="cls-1" x="-1291.83" y="103.4" width="1920" height="771.02"/></clipPath></defs><title>f</title><g class="cls-2"><image width="3840" height="2400" transform="translate(-1323.29 -89.01) scale(0.52)" xlink:href="../../../../旅遊網頁範例/taipei-101-wallpapers-28918-4403186.jpg"/></g><path class="cls-1" d="M6.34,6c-.06.25-.12.54-.19.76L5.77,8H6.9L6.53,6.75C6.47,6.53,6.4,6.24,6.34,6Z"/><path class="cls-1" d="M6.47,5.41l0-.1h-.2l0,.1s-.17.81-.3,1.27l-.47,1.6h1.8l-.47-1.6C6.64,6.22,6.47,5.42,6.47,5.41Z"/><path class="cls-3" d="M7.28,4.1A.33.33,0,0,0,7,3.87H5.72a.33.33,0,0,0-.32.23L3.19,10.59a.36.36,0,0,0,.05.3.32.32,0,0,0,.27.14h.88a.33.33,0,0,0,.32-.24l.38-1.31H7.58L8,10.79a.33.33,0,0,0,.32.24h.88a.32.32,0,0,0,.27-.14.34.34,0,0,0,.05-.31ZM5.44,8.28l.47-1.6c.13-.46.3-1.26.3-1.27l0-.1h.2l0,.1s.17.81.3,1.27l.47,1.6Z"/><path class="cls-3" d="M23.06,5H20.48V4.25a.34.34,0,0,0-.33-.34h-.61a.34.34,0,0,0-.34.34V5H16.62a.33.33,0,0,0-.33.33v.62a.33.33,0,0,0,.33.33H21.2l-.08.18a5.78,5.78,0,0,1-1.18,1.69l-.09.1-.09-.1a7,7,0,0,1-.67-.81.34.34,0,0,0-.45-.1l-.53.32a.31.31,0,0,0-.16.21A.34.34,0,0,0,18,8a7.91,7.91,0,0,0,.8,1l.09.1-.11.09a11.21,11.21,0,0,1-1,.7.33.33,0,0,0-.12.45l.31.53a.32.32,0,0,0,.2.16.34.34,0,0,0,.26,0A14.88,14.88,0,0,0,19.77,10l.08-.07.07.07a14.52,14.52,0,0,0,1.35.94.34.34,0,0,0,.47-.12l.3-.53a.33.33,0,0,0-.11-.45c-.33-.2-.66-.43-1-.7L20.8,9.1,20.9,9a6.67,6.67,0,0,0,1.61-2.63l0-.09h.53a.34.34,0,0,0,.34-.33V5.32A.34.34,0,0,0,23.06,5Z"/><path class="cls-4" d="M24.45,1.33H13.09V13.61H24.45a.92.92,0,0,0,.92-.92V2.26A.93.93,0,0,0,24.45,1.33Z"/><path class="cls-4" d="M1.74,1.33a.93.93,0,0,0-.92.93V12.69a.92.92,0,0,0,.92.92H13.09V1.33Z"/></svg>