<svg xmlns="http://www.w3.org/2000/svg" xmlns:xlink="http://www.w3.org/1999/xlink" viewBox="0 0 104.4 30.14"><defs><style>.cls-1{fill:none;}.cls-2{fill:#fff;}.cls-3{fill:#c9caca;}.cls-4{clip-path:url(#clip-path);}</style><clipPath id="clip-path"><rect class="cls-1" x="-359.95" y="181.16" width="1920" height="771.02"/></clipPath></defs><title>travel</title><g id="圖層_1" data-name="圖層 1"><path class="cls-2" d="M61.05,9.77a12.38,12.38,0,0,0-1.63.07V9.39H57.91A4.41,4.41,0,0,0,58,8.51V8a8.11,8.11,0,0,0,0-.86c.32,0,.74,0,1.42,0H70.57c.74,0,1.16,0,1.51,0a8.76,8.76,0,0,0,0,.91v.48a3.73,3.73,0,0,0,.07.85H70.59v.45a7.7,7.7,0,0,0-1.15-.07,12.3,12.3,0,0,1,1.66,1.35L69.45,12a7.22,7.22,0,0,0-.6-.66l-2.93.13v.63h3.41a14,14,0,0,0,1.6-.07V13.3a15,15,0,0,0-1.65-.07H65.92v.56h4.49c.74,0,1.33,0,1.85-.08v1.52c-.58-.05-1.27-.08-2.13-.08H59.87c-.87,0-1.48,0-2.12.08V13.71c.6,0,1.14.08,1.89.08h4.29v-.56H60.86a15.43,15.43,0,0,0-1.71.07V12a13.51,13.51,0,0,0,1.72.07h3.06v-.56l-4,.09a4.29,4.29,0,0,0-.74,0L59,10.27c.4.05,1.12.06,2.49.06a6.84,6.84,0,0,0,.44-.56Zm9.12-8.54c.71,0,1.25,0,1.7-.08V2.57a11.72,11.72,0,0,0-1.7-.08H65.92v.45h3.55c.69,0,1.1,0,1.54-.06V4.12c-.48,0-.87-.06-1.54-.06H60.54c-.71,0-1.09,0-1.57.06V2.88c.45,0,.85.06,1.57.06h3.38V2.49H59.79a14.76,14.76,0,0,0-1.67.07V1.15c.45,0,1,.08,1.71.08h4.09a4.24,4.24,0,0,0-.08-.77H66a3.5,3.5,0,0,0-.08.77Zm.18,4.83a5.54,5.54,0,0,0,.05.75c-.55,0-.87,0-1.57,0H61.16c-.72,0-1,0-1.57,0a4.26,4.26,0,0,0,0-.73V5.23a4.82,4.82,0,0,0,0-.77c.44,0,.79,0,1.57,0h7.67c.78,0,1.14,0,1.57,0a6,6,0,0,0-.05.77ZM59.9,8.7c.33,0,.56,0,1.15,0h8c.57,0,.7,0,1.1,0V8.29H59.9Zm1.81-2.83h6.56V5.4H61.71Zm2.35,3.9c-.22.29-.29.37-.45.56,2.88,0,2.88,0,4.07-.06L67,9.77Z"/><path class="cls-2" d="M75.42,6.17a10.11,10.11,0,0,0-1.55.08V4.08a9.86,9.86,0,0,0,1.55.08h2.24V2.59a12.12,12.12,0,0,0-.1-1.92h2.36a11.89,11.89,0,0,0-.1,1.92V13.42a13.16,13.16,0,0,0,.1,2H77.56a13.61,13.61,0,0,0,.1-2V11.82c-.88.48-1.7.88-2.74,1.33-.35.15-.53.23-.75.34l-.66-2.26a6.5,6.5,0,0,0,1.33-.37,23.51,23.51,0,0,0,2.82-1.21V6.17Zm8.23,6.52c0,.33.19.41,1,.41,1,0,1.36-.09,1.52-.41a9.82,9.82,0,0,0,.26-3.06,11.28,11.28,0,0,0,2,.8c-.09,2.43-.38,3.62-1,4.13-.48.38-1.14.5-2.82.5a6.27,6.27,0,0,1-2.26-.21c-.57-.27-.8-.71-.8-1.59V2.59A11.92,11.92,0,0,0,81.44.67h2.3a12.57,12.57,0,0,0-.09,1.92V5.45a13.18,13.18,0,0,0,3.28-2.53l1.5,1.78a3.65,3.65,0,0,0-.48.37c-.45.35-1.74,1.25-2.53,1.73-.61.36-1.1.64-1.77,1Z"/><path class="cls-2" d="M103.23,3.88a12.24,12.24,0,0,0,1.25,0c-.06.25-.1.46-.16.86a18.35,18.35,0,0,1-.64,3.22A10,10,0,0,1,103,9.63a8.41,8.41,0,0,0,1.64,1.49,7.25,7.25,0,0,0-1.09,1.7,10.09,10.09,0,0,1-1.46-1.59,12.09,12.09,0,0,1-1.34,1.6,7.07,7.07,0,0,0-.9-1.23v.1a8.55,8.55,0,0,0,.08,1.36H98.12a8.83,8.83,0,0,0,.07-1.27v-.3c-.56.17-1.12.32-2.45.64a9,9,0,0,0-.9.25l-.32-1.84a4.91,4.91,0,0,0,1-.11V2.92a2.68,2.68,0,0,0-.39,0V4.25a7.68,7.68,0,0,0-1.21-.06h-.2V5.52h.63a3.2,3.2,0,0,0,.86-.08V7.36a3,3,0,0,0-.86-.08h-.51V8.64h.27a4.84,4.84,0,0,0,1-.08v1.81a4.3,4.3,0,0,0-1-.08h-.27v2.14a5.05,5.05,0,0,0,2.24.72c.68.08,2.62.16,4,.16a44.27,44.27,0,0,0,4.75-.29,7.44,7.44,0,0,0-.54,2.12c-.93,0-3.36.08-4.69.08-3.39,0-4.48-.15-5.81-.74a5.59,5.59,0,0,1-2.37-1.9,10.48,10.48,0,0,1-.7,2.78,6.35,6.35,0,0,0-1.4-1.31,7.14,7.14,0,0,0,.6-1.83,21.92,21.92,0,0,0,.32-3.41,4.41,4.41,0,0,0,0-.73l1.52.21c0,.19,0,.32,0,.65,0,.48,0,.82,0,1.43a3.16,3.16,0,0,0,.58.78V7.28h-.91a8.71,8.71,0,0,0-1.51.08V5.44a9.77,9.77,0,0,0,1.51.08h.65V4.19h-.4a11.17,11.17,0,0,0-1.4.06V2.36a7.06,7.06,0,0,0,1.4.08h.4V2.11A9.83,9.83,0,0,0,91.83.73h2a6.16,6.16,0,0,0-.12,1.38v.33h1V1.07a16,16,0,0,0,1.78.09h6.24a14.85,14.85,0,0,0,1.75-.09V3c-.5-.05-1.09-.08-1.75-.08H99.87v1Zm-5,.28V2.91h-1V4.16Zm0,2.88V5.76h-1V7Zm-1,3.05a8.08,8.08,0,0,0,1-.27V8.62h-1Zm2.71,1a6.94,6.94,0,0,0,1.23-1.42,14.73,14.73,0,0,1-1.2-3.36l1.36-.69A14.5,14.5,0,0,0,102,7.87a11.23,11.23,0,0,0,.5-2.29H99.87Z"/><path class="cls-3" d="M59.79,27.39V20.14H57.48a.22.22,0,0,1-.18-.08.51.51,0,0,1-.06-.28v-.19a.51.51,0,0,1,.06-.28.22.22,0,0,1,.18-.08h5.63a.23.23,0,0,1,.19.08.63.63,0,0,1,.05.28v.19a.63.63,0,0,1-.05.28.23.23,0,0,1-.19.08H60.84v7.25c0,.17-.16.26-.48.26h-.09C60,27.65,59.79,27.56,59.79,27.39Z"/><path class="cls-3" d="M64.08,27.24a1.63,1.63,0,0,1-.56-1.34,1.73,1.73,0,0,1,.57-1.42,2.8,2.8,0,0,1,1.4-.61,11.45,11.45,0,0,1,2-.15v-.57a.91.91,0,0,0-.31-.72,1.47,1.47,0,0,0-1-.29,3.14,3.14,0,0,0-.92.13,4.65,4.65,0,0,0-.66.25l-.29.13q-.12,0-.27-.24a.8.8,0,0,1-.15-.36c0-.11.11-.22.32-.34a3.11,3.11,0,0,1,.84-.3,4.48,4.48,0,0,1,1.1-.13,2.75,2.75,0,0,1,1.74.5,1.68,1.68,0,0,1,.62,1.38v2.69A6.14,6.14,0,0,0,68.58,27a3.29,3.29,0,0,1,.07.37c0,.1-.07.17-.22.21a1.41,1.41,0,0,1-.42.07.25.25,0,0,1-.25-.19,2.22,2.22,0,0,1-.12-.39,1.74,1.74,0,0,1,0-.26,2.63,2.63,0,0,1-2,.9A2.27,2.27,0,0,1,64.08,27.24Zm2.55-.63A4.19,4.19,0,0,0,67.5,26V24.58c-.6,0-1.09,0-1.47.07A2.21,2.21,0,0,0,65,25a.93.93,0,0,0-.43.85,1,1,0,0,0,.26.73,1,1,0,0,0,.76.25A2.25,2.25,0,0,0,66.63,26.61Z"/><path class="cls-3" d="M70.21,20v-.67c0-.2.19-.29.58-.29s.53.09.53.29V20c0,.19-.19.29-.58.29S70.21,20.14,70.21,20Zm.05,7.44v-5.8c0-.17.16-.26.48-.26h.05c.32,0,.48.09.48.26v5.8c0,.17-.16.26-.48.26h-.05C70.42,27.65,70.26,27.56,70.26,27.39Z"/><path class="cls-3" d="M73.08,29.86V23.18A6.14,6.14,0,0,0,73,22a3.24,3.24,0,0,1-.07-.38c0-.09.07-.16.23-.21a1.64,1.64,0,0,1,.42-.06.25.25,0,0,1,.24.17,2.29,2.29,0,0,1,.12.37l.06.25a2.59,2.59,0,0,1,1.9-.9,2,2,0,0,1,1.26.41,2.67,2.67,0,0,1,.8,1.14,4.8,4.8,0,0,1,.27,1.67,4.52,4.52,0,0,1-.3,1.74,2.44,2.44,0,0,1-.86,1.09,2.2,2.2,0,0,1-1.27.37,2.38,2.38,0,0,1-.93-.16,3,3,0,0,1-.79-.45v2.77c0,.18-.16.26-.48.26h0C73.24,30.12,73.08,30,73.08,29.86Zm3.7-3.62a2.89,2.89,0,0,0,.41-1.66,3.4,3.4,0,0,0-.39-1.79,1.2,1.2,0,0,0-1.09-.63,1.86,1.86,0,0,0-.83.21,2.84,2.84,0,0,0-.79.61v3.29a2.26,2.26,0,0,0,1.49.54A1.38,1.38,0,0,0,76.78,26.24Z"/><path class="cls-3" d="M80,26.92a3.43,3.43,0,0,1-.72-2.39,3.64,3.64,0,0,1,.7-2.42,2.62,2.62,0,0,1,2.09-.83,2.21,2.21,0,0,1,1.85.8,3.76,3.76,0,0,1,.62,2.33.55.55,0,0,1-.14.3c-.1.13-.18.19-.25.19H80.37a2.31,2.31,0,0,0,.51,1.47,1.77,1.77,0,0,0,1.33.47,2.75,2.75,0,0,0,.87-.13,4.21,4.21,0,0,0,.61-.25,1,1,0,0,1,.28-.13c.08,0,.16.08.27.24a.75.75,0,0,1,.14.36c0,.1-.1.21-.29.33a2.73,2.73,0,0,1-.8.31,4.05,4.05,0,0,1-1.06.13A2.88,2.88,0,0,1,80,26.92ZM83.49,24c0-1.26-.48-1.9-1.44-1.9s-1.6.64-1.68,1.9Z"/><path class="cls-3" d="M85.84,20v-.67c0-.2.19-.29.57-.29s.53.09.53.29V20c0,.19-.19.29-.58.29S85.84,20.14,85.84,20Zm0,7.44v-5.8c0-.17.17-.26.48-.26h0c.32,0,.48.09.48.26v5.8c0,.17-.16.26-.48.26h0C86.05,27.65,85.88,27.56,85.88,27.39Z"/><path class="cls-3" d="M97.24,23.38a.43.43,0,0,1,.08.28v3.18q0,.46-.75.66a7.79,7.79,0,0,1-1.92.2,3.59,3.59,0,0,1-2.77-1,4.59,4.59,0,0,1-.94-3.16c0-2.9,1.29-4.34,3.88-4.34a5,5,0,0,1,1.1.11,3.39,3.39,0,0,1,.87.29c.22.12.33.24.33.34a.92.92,0,0,1-.15.43c-.1.18-.19.27-.26.27a1.63,1.63,0,0,1-.31-.15,3.47,3.47,0,0,0-.66-.27,3.38,3.38,0,0,0-.89-.11,2.57,2.57,0,0,0-2.17.84A4,4,0,0,0,92,23.39a4.48,4.48,0,0,0,.6,2.48,2.32,2.32,0,0,0,2.09.92c.29,0,.58,0,.87,0a4,4,0,0,0,.68-.12V24.21H94.86a.2.2,0,0,1-.18-.09.45.45,0,0,1-.06-.27v-.19a.51.51,0,0,1,.06-.28.19.19,0,0,1,.18-.08H97A.38.38,0,0,1,97.24,23.38Z"/><path class="cls-3" d="M99.39,26.88a3.5,3.5,0,0,1-.71-2.36,3.58,3.58,0,0,1,.72-2.4,2.57,2.57,0,0,1,2.06-.84,2.5,2.5,0,0,1,2,.83,3.65,3.65,0,0,1,.71,2.41,3.56,3.56,0,0,1-.69,2.37,2.53,2.53,0,0,1-2,.81A2.6,2.6,0,0,1,99.39,26.88Zm3.33-.61a3,3,0,0,0,.42-1.77,3,3,0,0,0-.42-1.78,1.5,1.5,0,0,0-1.29-.58,1.47,1.47,0,0,0-1.29.57,3.13,3.13,0,0,0-.41,1.79,3.08,3.08,0,0,0,.41,1.77,1.47,1.47,0,0,0,1.29.57A1.5,1.5,0,0,0,102.72,26.27Z"/><path class="cls-2" d="M38,1.22a13.32,13.32,0,0,0-8.35,2.05,13.72,13.72,0,0,0-6.24,9.19l0,.2H16.52a2.18,2.18,0,0,0,0,4.36h6.3l-.05.29c-.66,3.7-4.67,6.78-8.8,6.78h-.12a9.34,9.34,0,0,1-9.07-8.26A8.64,8.64,0,0,1,6.17,9.89,9.25,9.25,0,0,1,12.44,5.7a1.48,1.48,0,0,0,1.2-1.44V2.77a1.44,1.44,0,0,0-.5-1.09,1.4,1.4,0,0,0-.94-.35l-.2,0A13.61,13.61,0,1,0,27.67,14.56a9.22,9.22,0,0,1,8.8-9,9.35,9.35,0,0,1,9.59,8A9.19,9.19,0,0,1,39.2,23.78a8.9,8.9,0,0,1-7.09-1A2.21,2.21,0,0,0,29.4,23l-.06.07a2.12,2.12,0,0,0-.63,1.78,2.18,2.18,0,0,0,1,1.62A14,14,0,0,0,43,27.05,13.64,13.64,0,0,0,38,1.22Z"/><g class="cls-4"><image width="3840" height="2400" transform="translate(-391.41 -11.24) scale(0.52)" xlink:href="../../../../../../Dropbox/前端課程/旅遊網頁範例/taipei-101-wallpapers-28918-4403186.jpg"/></g></g></svg>