<svg id="圖層_1" data-name="圖層 1" xmlns="http://www.w3.org/2000/svg" xmlns:xlink="http://www.w3.org/1999/xlink" viewBox="0 0 17.39 16.89"><defs><style>.cls-1{fill:none;}.cls-2{clip-path:url(#clip-path);}.cls-3{fill:#9be625;}.cls-4{fill:#0087e3;}</style><clipPath id="clip-path"><rect class="cls-1" x="-538.22" y="167.19" width="1920" height="771.02"/></clipPath></defs><title>travel</title><g class="cls-2"><image width="3840" height="2400" transform="translate(-569.68 -25.21) scale(0.52)" xlink:href="../../../../../Dropbox/前端課程/旅遊網頁範例/taipei-101-wallpapers-28918-4403186.jpg"/></g><g id="g3003"><path id="path3009" class="cls-3" d="M8.87,5.8c-.23.23-.72.75-.91.93A.72.72,0,0,1,7.35,7H6.67l2-2a.73.73,0,0,1,.59-.23h2.88L11.82,4H8a1.09,1.09,0,0,0-.88.4C6.82,4.76,5,6.58,4.83,6.74A.67.67,0,0,1,4.2,7h-1L.85,9.38H6A1.05,1.05,0,0,0,6.88,9C7.13,8.77,8.8,7.12,9,6.89a.82.82,0,0,1,.7-.29h3.86l-.51-1.17H9.7a1,1,0,0,0-.83.37m8.39,1.75c-1.57,5.8-6.37,9.09-10.82,9.09A6.08,6.08,0,0,1,0,10H3a4.52,4.52,0,0,0,4.87,5c3.14-.13,6.17-2.55,7.53-5.66l1.85-1.84"/><path id="path3011" class="cls-4" d="M2,7.25C3.34,4.14,6.37,1.72,9.53,1.59a4.49,4.49,0,0,1,4.86,5h3A6.08,6.08,0,0,0,11,0C6.5,0,1.7,3.29.12,9.09Zm6.54,3.58.91-.92a.75.75,0,0,1,.62-.23h.67l-2,2a.75.75,0,0,1-.59.23H5.26l.31.7h3.8a1.08,1.08,0,0,0,.89-.4l2.3-2.31a.67.67,0,0,1,.63-.24h1l2.37-2.4H11.37a1,1,0,0,0-.86.35c-.25.26-1.92,1.91-2.15,2.14a.81.81,0,0,1-.69.29H3.79l.52,1.17H7.7a1,1,0,0,0,.82-.38"/></g></svg>