<svg id="圖層_1" data-name="圖層 1" xmlns="http://www.w3.org/2000/svg" xmlns:xlink="http://www.w3.org/1999/xlink" viewBox="0 0 14 14.52"><defs><style>.cls-1{fill:none;}.cls-2{clip-path:url(#clip-path);}.cls-3{fill:#c9caca;}</style><clipPath id="clip-path"><rect class="cls-1" x="-561.67" y="166.25" width="1920" height="771.02"/></clipPath></defs><title>clock-regular</title><g class="cls-2"><image width="3840" height="2400" transform="translate(-593.13 -26.15) scale(0.52)" xlink:href="../../../../../Dropbox/前端課程/旅遊網頁範例/taipei-101-wallpapers-28918-4403186.jpg"/></g><path class="cls-3" d="M7,.38a7,7,0,1,0,7,7A7,7,0,0,0,7,.38ZM7,13a5.65,5.65,0,1,1,5.65-5.65A5.65,5.65,0,0,1,7,13Zm1.74-2.95L6.35,8.34a.35.35,0,0,1-.14-.28V3.43a.34.34,0,0,1,.34-.34h.9a.34.34,0,0,1,.34.34v4L9.68,8.8a.35.35,0,0,1,.07.48L9.22,10a.35.35,0,0,1-.48.07Z"/></svg>