<svg id="圖層_1" data-name="圖層 1" xmlns="http://www.w3.org/2000/svg" xmlns:xlink="http://www.w3.org/1999/xlink" viewBox="0 0 104.4 30.14"><defs><style>.cls-1{fill:none;}.cls-2{clip-path:url(#clip-path);}.cls-3{font-size:16px;font-family:GenJyuuGothic-Monospace-Bold, Gen Jyuu Gothic Monospace;font-weight:700;}.cls-3,.cls-6{fill:#fff;}.cls-4{font-size:12px;fill:#c9caca;font-family:Asap-Regular, Asap;letter-spacing:-0.05em;}.cls-5{letter-spacing:-0.03em;}</style><clipPath id="clip-path"><rect class="cls-1" x="-359.95" y="181.16" width="1920" height="771.02"/></clipPath></defs><title>logo</title><g class="cls-2"><image width="3840" height="2400" transform="translate(-391.41 -11.24) scale(0.52)" xlink:href="../../../../旅遊網頁範例/taipei-101-wallpapers-28918-4403186.jpg"/></g><text class="cls-3" transform="translate(57 13.77)">臺北趣</text><text class="cls-4" transform="translate(57 27.63)">T<tspan class="cls-5" x="5.93" y="0">aipei Go</tspan></text><path class="cls-6" d="M38,1.22a13.32,13.32,0,0,0-8.35,2.05,13.72,13.72,0,0,0-6.24,9.19l0,.2H16.52a2.18,2.18,0,0,0,0,4.36h6.3l-.05.29c-.66,3.7-4.67,6.78-8.8,6.78h-.12a9.34,9.34,0,0,1-9.07-8.26A8.64,8.64,0,0,1,6.17,9.89,9.25,9.25,0,0,1,12.44,5.7a1.48,1.48,0,0,0,1.2-1.44V2.77a1.44,1.44,0,0,0-.5-1.09,1.4,1.4,0,0,0-.94-.35l-.2,0A13.61,13.61,0,1,0,27.67,14.56a9.22,9.22,0,0,1,8.8-9,9.35,9.35,0,0,1,9.59,8A9.19,9.19,0,0,1,39.2,23.78a8.9,8.9,0,0,1-7.09-1A2.21,2.21,0,0,0,29.4,23l-.06.07a2.12,2.12,0,0,0-.63,1.78,2.18,2.18,0,0,0,1,1.62A14,14,0,0,0,43,27.05,13.64,13.64,0,0,0,38,1.22Z"/></svg>