<svg id="圖層_1" data-name="圖層 1" xmlns="http://www.w3.org/2000/svg" xmlns:xlink="http://www.w3.org/1999/xlink" viewBox="0 0 18.58 15.43"><defs><style>.cls-1{fill:none;}.cls-2{clip-path:url(#clip-path);}.cls-3{fill:#fff;stroke:#fff;stroke-miterlimit:10;stroke-width:0.2px;}</style><clipPath id="clip-path"><rect class="cls-1" x="-1268.4" y="103.59" width="1920" height="771.02"/></clipPath></defs><title>member-icon</title><g class="cls-2"><image width="3840" height="2400" transform="translate(-1299.86 -88.82) scale(0.52)" xlink:href="../../../../旅遊網頁範例/taipei-101-wallpapers-28918-4403186.jpg"/></g><path class="cls-3" d="M7.44,14.79l-.05,0Z"/><path class="cls-3" d="M9.91.21A7.5,7.5,0,0,0,7.39,14.77l.05,0A7.5,7.5,0,1,0,9.91.21Zm2.75,13.61a7.71,7.71,0,0,1-.8.3,6.7,6.7,0,0,1-3.9,0,6.94,6.94,0,0,1-.8-.3,6.7,6.7,0,1,1,5.5,0Z"/><path class="cls-3" d="M8,11a1.95,1.95,0,1,1,3.9,0v3.16a7.71,7.71,0,0,0,.8-.3V10.91a2.75,2.75,0,0,0-5.5,0v2.91a6.94,6.94,0,0,0,.8.3Z"/><path class="cls-3" d="M9.91,7.66a2.77,2.77,0,0,0,2.75-2.75A2.75,2.75,0,1,0,9.91,7.66Zm0-4.7a2,2,0,0,1,1.95,2,2,2,0,0,1-3.9,0A1.92,1.92,0,0,1,9.91,3Z"/></svg>