<svg id="圖層_1" data-name="圖層 1" xmlns="http://www.w3.org/2000/svg" xmlns:xlink="http://www.w3.org/1999/xlink" viewBox="0 0 22.86 20"><defs><style>.cls-1{fill:none;}.cls-2{clip-path:url(#clip-path);}.cls-3{fill:#b5b5b6;}</style><clipPath id="clip-path"><rect class="cls-1" x="-501.65" y="168.87" width="1920" height="771.02"/></clipPath></defs><title>travel</title><g class="cls-2"><image width="3840" height="2400" transform="translate(-533.11 -23.53) scale(0.52)" xlink:href="../../../../../Dropbox/前端課程/旅遊網頁範例/taipei-101-wallpapers-28918-4403186.jpg"/></g><path class="cls-3" d="M8.36,16.22,4.79,19.79a.71.71,0,0,1-1,0L.21,16.22A.72.72,0,0,1,.72,15H2.86V.71A.71.71,0,0,1,3.57,0H5a.71.71,0,0,1,.71.71V15H7.86A.71.71,0,0,1,8.36,16.22ZM10.71,2.86H22.14a.72.72,0,0,0,.72-.72V.71A.71.71,0,0,0,22.14,0H10.71A.71.71,0,0,0,10,.71V2.14A.71.71,0,0,0,10.71,2.86Zm-.71,5V6.43a.71.71,0,0,1,.71-.72h8.58a.71.71,0,0,1,.71.72V7.86a.71.71,0,0,1-.71.71H10.71A.71.71,0,0,1,10,7.86Zm0,11.43V17.86a.71.71,0,0,1,.71-.72h2.86a.72.72,0,0,1,.72.72v1.43a.71.71,0,0,1-.72.71H10.71A.71.71,0,0,1,10,19.29Zm0-5.72V12.14a.71.71,0,0,1,.71-.71h5.72a.71.71,0,0,1,.71.71v1.43a.71.71,0,0,1-.71.72H10.71A.71.71,0,0,1,10,13.57Z"/></svg>