<svg xmlns="http://www.w3.org/2000/svg" xmlns:xlink="http://www.w3.org/1999/xlink" viewBox="0 0 22.86 20"><defs><style>.cls-1{fill:none;}.cls-2{clip-path:url(#clip-path);}.cls-3{fill:#fff;}</style><clipPath id="clip-path"><rect class="cls-1" x="-1322.73" y="106.91" width="1920" height="771.02"/></clipPath></defs><title>square</title><g id="圖層_1" data-name="圖層 1"><g class="cls-2"><image width="3840" height="2400" transform="translate(-1354.19 -85.49) scale(0.52)" xlink:href="../../../../../Dropbox/前端課程/旅遊網頁範例/taipei-101-wallpapers-28918-4403186.jpg"/></g></g><g id="icons_1"><path class="cls-3" d="M13.21,0h8.58a1.07,1.07,0,0,1,1.07,1.07V8.21a1.07,1.07,0,0,1-1.07,1.08H13.21a1.07,1.07,0,0,1-1.07-1.08V1.07A1.07,1.07,0,0,1,13.21,0ZM9.64,0H1.07A1.07,1.07,0,0,0,0,1.07V8.21A1.07,1.07,0,0,0,1.07,9.29H9.64a1.07,1.07,0,0,0,1.07-1.08V1.07A1.07,1.07,0,0,0,9.64,0ZM0,11.79v7.14A1.07,1.07,0,0,0,1.07,20H9.64a1.07,1.07,0,0,0,1.07-1.07V11.79a1.07,1.07,0,0,0-1.07-1.08H1.07A1.07,1.07,0,0,0,0,11.79ZM13.21,20h8.58a1.07,1.07,0,0,0,1.07-1.07V11.79a1.07,1.07,0,0,0-1.07-1.08H13.21a1.07,1.07,0,0,0-1.07,1.08v7.14A1.07,1.07,0,0,0,13.21,20Z"/></g></svg>